<svg xmlns="http://www.w3.org/2000/svg" width="256" height="256"><path fill-opacity=".016" d="M0 128.004v128.004l128.25-.254 128.25-.254.254-127.75L257.008 0H0v128.004m.485.496c0 70.4.119 99.053.265 63.672.146-35.38.146-92.98 0-128C.604 29.153.485 58.1.485 128.5" fill="#1976D2" fill-rule="evenodd"/><path fill-opacity=".155" d="M148.75 11.226c-1.512 1.762-2.75 3.745-2.75 4.406 0 .661-.38 1.351-.845 1.535-1.213.478-8.155 10.37-8.155 11.619 0 .576-.364 1.197-.808 1.381-.445.183-2.339 2.583-4.209 5.333-1.87 2.75-3.766 5.45-4.213 6-.447.55-3.572 5.05-6.945 10-3.372 4.95-6.512 9.15-6.978 9.333-.466.184-.848.859-.849 1.5-.002.642-1.351 2.742-2.998 4.667-1.647 1.925-2.996 3.803-2.998 4.173-.001.371-1.167 2.058-2.591 3.75-2.326 2.765-3.163 3.078-8.25 3.089-3.114.006-8.087.657-11.052 1.447C78.978 81.09 65.736 86.602 62 89.078c-1.375.911-8.297 4.673-15.383 8.361-7.085 3.687-14.614 7.797-16.73 9.132-2.116 1.336-4.269 2.429-4.784 2.429-.515 0-1.086.337-1.27.75-.183.412-2.01 2.003-4.061 3.534-7.149 5.339-8.54 9.219-10.866 30.312A7751.451 7751.451 0 015.901 170.5c-.506 4.4-1.188 13.547-1.516 20.328l-.595 12.327 3.163 3.936 3.163 3.937-1.871 2.736c-1.03 1.505-2.457 4.761-3.173 7.236-.715 2.475-1.677 5.4-2.139 6.5-1.775 4.231-2.922 10.209-2.927 15.25L0 248h5.391c4.567 0 6.133-.534 10.25-3.497A814.13 814.13 0 0123 239.262c4.542-3.167 9.649-8.237 11.086-11.003.778-1.499 2.539-3.919 3.915-5.379l2.5-2.655 2.278 4.727c4.721 9.795 11.725 13.81 18.473 10.59 1.787-.852 4.034-2.932 4.995-4.621l1.747-3.072 3.731 3.076c2.052 1.691 4.303 3.075 5.003 3.075.7 0 1.272.45 1.272 1s1.125 1 2.5 1 2.5.45 2.5 1 1.35 1 3 1 3-.45 3-1 .635-1 1.411-1 2.546-1.348 3.933-2.997l2.521-2.996 5.818 1.428c9.946 2.441 15.508 2.811 19.16 1.275 2.525-1.063 4.36-1.167 7.5-.423 2.286.541 11.357 1.19 20.157 1.442 16.054.46 23.999-.31 35.5-3.44 5.274-1.435 8.431-2.156 19.544-4.463 2.775-.576 7.5-.787 10.5-.47 15.745 1.666 25.962 1.884 27.524.587 2.26-1.875 6.432-10.444 6.432-13.21 0-1.283.385-2.761.855-3.283 2.656-2.952 4.727-48.642 2.348-51.815-.468-.624-.958-3.16-1.089-5.635-.275-5.2-1.925-10.769-3.902-13.168-.9-1.093-3.503-1.85-7.543-2.195-8.925-.761-14.883-1.639-17.169-2.529-1.1-.429-5.825-2.014-10.5-3.524-8.828-2.85-35-15.305-35-16.656 0-.693-12.16-6.845-24-12.143-12.654-5.661-21.982-11.04-21.992-12.681-.008-1.383 6.252-11.437 8.629-13.86.677-.691 1.517-2.153 1.865-3.25.348-1.097 1.052-1.994 1.565-1.994.513 0 .933-.482.933-1.071 0-.59.563-1.699 1.25-2.466 2.968-3.309 3.75-4.44 3.75-5.421 0-.573.45-1.042 1-1.042s1-.675 1-1.5.379-1.5.843-1.5c.463 0 1.69-1.575 2.727-3.5s2.178-3.5 2.536-3.5c.358 0 1.169-1.249 1.801-2.776.633-1.527 2.486-4.339 4.119-6.25 1.633-1.911 2.97-3.831 2.972-4.268.001-.436 1.127-2.007 2.502-3.489 1.375-1.483 2.5-3.226 2.5-3.873 0-.648.492-1.341 1.093-1.542 1.918-.639 1.46-7.302-.65-9.441C167.818 14.684 161.219 10 159.665 10c-.851 0-1.825-.45-2.165-1-1.34-2.168-5.997-.983-8.75 2.226" fill="#1976D2" fill-rule="evenodd"/><path fill-opacity=".623" d="M151.412 14.225c-2.15 2.324-3.78 4.792-3.621 5.484.187.812-.316 1.027-1.415.605-1.151-.442-1.47-.276-.984.512.41.663-.381 2.186-1.836 3.534-1.406 1.303-2.556 2.815-2.556 3.359s-1.125 2.203-2.5 3.686c-1.375 1.484-2.5 3.125-2.5 3.647 0 .521-.45.948-1 .948s-1 .627-1 1.393-.704 1.663-1.563 1.993c-.86.33-1.284 1.053-.941 1.607.342.554-.08 1.007-.937 1.007-.857 0-1.56.563-1.56 1.25-.001.688-1.076 2.5-2.39 4.027-1.314 1.528-3.451 4.337-4.749 6.243-1.298 1.907-2.698 3.469-3.11 3.473-.412.004-.75.597-.75 1.318 0 .722-.8 2.184-1.778 3.25-.978 1.067-2.965 3.964-4.416 6.439-1.45 2.475-3.575 5.494-4.721 6.708-1.147 1.215-2.085 2.432-2.085 2.705 0 .273-1.013 1.599-2.25 2.946-3.434 3.74-4.401 5.066-6.12 8.39-.871 1.684-2.156 3.667-2.857 4.406-.7.74-2.966 3.933-5.035 7.097-3.893 5.953-5.99 8.729-8.988 11.898-.962 1.018-1.75 2.107-1.75 2.421 0 .315-.562 1.141-1.25 1.836-.687.695-2.725 3.082-4.528 5.303-2.163 2.665-4.087 4.04-5.653 4.04-2.094 0-4.33 1.354-11.974 7.25-4.863 3.751-6.47 6.072-8.023 11.586-.916 3.253-2.996 9.289-4.624 13.414-1.627 4.125-2.956 7.838-2.953 8.25.017 2.369 4.797-.089 11.665-6 12.578-10.825 19.134-15.038 30.34-19.499 2.404-.956 6.348-2.913 10.44-5.177 5.819-3.222 11.195-8.835 20.357-21.262 5.22-7.079 16.421-18.312 18.26-18.312.519 0 .943-.9.943-2s-.45-2-1-2-1-1.125-1-2.5.343-2.5.763-2.5c.419 0 1.207-.861 1.75-1.913 1.274-2.468 12.631-19.431 13.45-20.087.343-.275 1.954-2.637 3.58-5.248 1.626-2.612 3.295-4.749 3.707-4.75.412-.001.75-.639.75-1.419 0-.779.354-1.566.788-1.75.832-.352 10.019-13.629 11.699-16.907.543-1.059 1.331-1.926 1.75-1.926.42 0 .763-.675.763-1.5s.348-1.5.773-1.5c.425 0 1.593-1.524 2.596-3.387 1.715-3.183 1.724-3.542.153-5.938C169.001 16.827 159.209 10 156.21 10c-.489 0-2.648 1.901-4.798 4.225M95 189.94c-11.681 2.473-21.061 5.72-33.5 11.596-16.055 7.586-27.787 9.532-33.391 5.542-1.632-1.163-3.978-3.748-5.212-5.745l-2.244-3.631-2.372 2.899a734.479 734.479 0 01-4.327 5.234C12.88 207.119 12 208.644 12 209.224c0 .58-1.35 3.249-3 5.93-1.65 2.682-3 5.743-3 6.802 0 1.059-.4 2.173-.89 2.476-.489.302-1.122 2.016-1.406 3.809-.285 1.792-1.059 5.059-1.721 7.259-.662 2.2-1.424 5.912-1.694 8.25l-.49 4.25h5.1c3.503 0 5.667-.548 6.907-1.75.993-.963 4.031-3.281 6.75-5.153 6.127-4.218 15.44-13.619 17.444-17.61 1.97-3.922 3.762-5.752 4.928-5.032.518.321 2.043 2.985 3.387 5.921 2.826 6.173 8.118 10.713 12.637 10.842 3.734.106 8.048-3.557 8.048-6.833 0-3.336 1.274-3.572 4.468-.828 1.564 1.344 3.191 2.443 3.616 2.443.425 0 1.415.642 2.199 1.426C77.25 233.393 83.739 236 86.668 236c2.427 0 6.622-3.369 7.51-6.033.528-1.586 5.854-1.555 8.856.051 2.71 1.451 19.528 1.59 21.231.177.781-.648 1.641-.956 1.912-.684.272.271 4.73 1.223 9.908 2.115 13.704 2.361 42.02.364 51.415-3.626 6.488-2.755 18.807-3.809 37.634-3.218 16.357.513 16.653.485 17.807-1.672.646-1.207 1.036-3.855.867-5.883-.271-3.244-1.032-4.195-6.308-7.884-3.3-2.307-6.562-4.228-7.25-4.269-.687-.041-1.25-.452-1.25-.915s-2.146-2.009-4.768-3.436l-4.768-2.595-10.482 1.379c-5.765.759-12.282 2.144-14.482 3.077-2.2.934-5.35 2.044-7 2.467-1.65.422-6.375 1.698-10.5 2.835-9.328 2.571-18.544 2.663-27.631.277-9.688-2.543-14.858-5.371-22.039-12.055-9.173-8.539-15.463-9.739-32.33-6.168" fill="#1976D2" fill-rule="evenodd"/><path fill-opacity=".975" d="M156.263 13.836c-2.692 2.845-4.973 5.766-7.732 9.902-1.381 2.069-4.879 7.137-7.774 11.262-2.895 4.125-11.765 16.95-19.71 28.5s-14.919 21.547-15.496 22.215c-2.139 2.474-3.083 3.848-4.389 6.383-.736 1.429-2.415 3.853-3.732 5.385-1.317 1.533-3.858 5.089-5.647 7.902-1.788 2.813-3.613 5.565-4.055 6.115-5.493 6.838-22.813 32.748-22.261 33.3.482.482 7.592-2.443 18.533-7.623 4.978-2.357 13.862-8.074 16.563-10.66.585-.559 3.169-3.942 5.744-7.517 2.574-3.575 5.336-7.4 6.137-8.5 6.855-9.413 9.663-13.194 10.658-14.349.639-.742 2.258-3.411 3.599-5.932 2.377-4.472 7.747-12.555 9.849-14.827.578-.624 2.585-3.668 4.461-6.763 1.877-3.096 3.766-5.629 4.2-5.629.434 0 .789-.675.789-1.5s.45-1.5 1-1.5 1-.498 1-1.106c0-.953 1.335-2.863 6.015-8.602.542-.664.985-1.677.985-2.25s.395-1.042.879-1.042c.483 0 1.438-1.35 2.121-3s1.567-3 1.964-3 1.569-1.575 2.606-3.5 2.202-3.5 2.59-3.5c.388 0 .974-.847 1.302-1.881.329-1.035 1.519-2.944 2.644-4.242 3.813-4.395 1.188-9.368-7.343-13.913-3.643-1.941-3.78-1.944-5.5-.128M20.811 207.774c-.8.949-3.583 4.763-6.184 8.476-4.757 6.792-6.036 7.802-6.965 5.5-.277-.687-.54-.125-.584 1.25-.044 1.375-1.644 7.225-3.555 13-1.912 5.775-3.486 10.838-3.499 11.25-.013.412 1.753.75 3.924.75 2.826 0 4.716-.711 6.647-2.5 1.483-1.375 3.049-2.5 3.48-2.5.43 0 1.377-.572 2.104-1.271.726-.698 3.571-3.059 6.321-5.246 6.314-5.02 7.7-6.544 11.693-12.859 1.782-2.818 4.329-6.092 5.661-7.274l2.422-2.151-5.857-1.216c-3.222-.669-7.222-2.222-8.888-3.452-4.717-3.48-5.168-3.598-6.72-1.757" fill="#1976D2" fill-rule="evenodd"/></svg>